<svg xmlns="http://www.w3.org/2000/svg" width="27" height="27" fill="none"><path fill-rule="evenodd" d="M24.746 20.615c1.47-2.149 2.254-4.676 2.254-7.261a12.81 12.81 0 0 0-1.018-5.001c-.672-1.586-1.658-3.026-2.9-4.24s-2.717-2.176-4.341-2.833-3.363-.995-5.12-.994c-2.646 0-5.233.767-7.433 2.203a13.14 13.14 0 0 0-4.928 5.866 12.79 12.79 0 0 0-.761 7.552 12.98 12.98 0 0 0 3.662 6.692 13.48 13.48 0 0 0 6.851 3.577c2.595.504 5.285.245 7.73-.744s4.534-2.665 6.004-4.814zM20.932 8.913a2.19 2.19 0 0 0 .618-.079c.345-.093 1.171-.433 1.171-.433a5.57 5.57 0 0 1-.893 1.163c-.551.538-.808.664-.808.664l-.007-.009c-.149 4.536-3.253 9.155-8.753 9.436-2.074.107-3.98-.718-5.463-1.912a5.97 5.97 0 0 0 1.677.241c1.124 0 2.172-.413 3.074-1.091 0 0-3.081-.83-2.998-2.226l1.47-.041s-.942-.284-1.457-.739c-.883-.778-1.395-1.863-1.141-2.47.18.128.381.223.595.281a2.84 2.84 0 0 0 .833.135s-.917-.641-1.183-1.348c-.417-1.105-.204-2.514.206-2.94 0 0 .157.894 2.776 2.189 1.325.655 2.813 1.12 3.974 1.151-.09-.342-.136-.694-.134-1.047 0-1.544 1.462-2.791 3.264-2.791.468-.007.932.08 1.365.254s.825.432 1.152.759l.867-.383 1.037-.429c.012.02.049.078.008.214-.107.362-.918 1.133-1.239 1.385l-.012.064z" fill="#c4c4c4"/></svg>