<svg xmlns="http://www.w3.org/2000/svg" width="27" height="27" fill="none"><path d="M26.758 13.355c0-2.585-.784-5.112-2.254-7.262S20.945 2.268 18.5 1.279 13.365.031 10.77.535a13.48 13.48 0 0 0-6.851 3.577 12.98 12.98 0 0 0-3.662 6.692 12.79 12.79 0 0 0 .761 7.552 13.14 13.14 0 0 0 4.928 5.866c2.2 1.436 4.787 2.203 7.433 2.203h.119v-9.123h-3.222v-3.643h3.214v-2.687c0-3.119 1.949-4.817 4.797-4.817a27.15 27.15 0 0 1 2.879.143v3.256h-1.971c-1.548 0-1.849.719-1.849 1.774v2.326h3.691l-.476 3.645h-3.214v8.537c2.726-.828 5.11-2.485 6.804-4.73s2.607-4.961 2.609-7.75z" fill="#c4c4c4"/><path d="M20.56 17.301l.476-3.645h-3.691V11.33c0-1.055.3-1.774 1.849-1.774h1.976V6.3a27.15 27.15 0 0 0-2.879-.143c-2.848 0-4.797 1.698-4.797 4.817v2.687h-3.218v3.64h3.214v9.118c1.306-.01 2.603-.205 3.851-.582v-8.536h3.217z" fill="#666d73"/></svg>