<svg xmlns="http://www.w3.org/2000/svg" width="27" height="27" fill="none"><path d="M26.88 13.355c0 2.585-.785 5.112-2.255 7.261s-3.56 3.825-6.004 4.814-5.135 1.248-7.73.744a13.48 13.48 0 0 1-6.85-3.577C2.169 20.768.894 18.44.378 15.904a12.79 12.79 0 0 1 .761-7.551 13.14 13.14 0 0 1 4.928-5.866C8.267 1.051 10.854.285 13.5.285c1.757 0 3.497.338 5.12.995s3.098 1.619 4.341 2.833 2.228 2.655 2.9 4.24 1.018 3.285 1.018 5.002z" fill="#c4c4c4"/><path d="M17.126 22.173H9.877a5.91 5.91 0 0 1-4.123-1.671 5.64 5.64 0 0 1-1.711-4.028v-6.241a5.64 5.64 0 0 1 1.711-4.027C6.848 5.138 8.33 4.537 9.877 4.535h7.249a5.91 5.91 0 0 1 4.123 1.672c1.094 1.069 1.709 2.516 1.711 4.027v6.24a5.64 5.64 0 0 1-1.71 4.028c-1.094 1.069-2.577 1.67-4.123 1.672zM9.877 5.801a4.6 4.6 0 0 0-3.208 1.3c-.851.831-1.329 1.957-1.331 3.133v6.24a4.39 4.39 0 0 0 1.331 3.133 4.6 4.6 0 0 0 3.207 1.299h7.249a4.6 4.6 0 0 0 3.208-1.3 4.39 4.39 0 0 0 1.331-3.133v-6.238a4.39 4.39 0 0 0-1.331-3.134c-.851-.832-2.004-1.299-3.208-1.3H9.877zm3.624 12.627c-1.027 0-2.032-.298-2.886-.855a5.1 5.1 0 0 1-1.913-2.277c-.393-.927-.496-1.948-.295-2.932a5.04 5.04 0 0 1 1.422-2.598c.727-.71 1.652-1.193 2.66-1.388a5.31 5.31 0 0 1 3.001.289 5.17 5.17 0 0 1 2.331 1.869 4.99 4.99 0 0 1 .875 2.819 5.02 5.02 0 0 1-1.523 3.586 5.26 5.26 0 0 1-3.671 1.487zm0-8.881c-.771 0-1.524.223-2.165.642A3.83 3.83 0 0 0 9.9 11.898a3.73 3.73 0 0 0-.222 2.2 3.78 3.78 0 0 0 1.067 1.95c.545.532 1.24.895 1.996 1.042s1.54.071 2.252-.217a3.88 3.88 0 0 0 1.749-1.402c.428-.626.657-1.362.657-2.115-.001-1.01-.412-1.978-1.143-2.691a3.95 3.95 0 0 0-2.755-1.116zm6.193-1.111a1.04 1.04 0 0 1-.178.587c-.117.174-.286.31-.483.391a1.1 1.1 0 0 1-.624.063c-.21-.04-.403-.14-.554-.287a1.05 1.05 0 0 1-.297-.539 1.03 1.03 0 0 1 .06-.61 1.06 1.06 0 0 1 .397-.474 1.1 1.1 0 0 1 .6-.178 1.09 1.09 0 0 1 .76.306 1.04 1.04 0 0 1 .318.741z" fill="#666d73"/></svg>