<svg id="Layer_1" data-name="Layer 1" xmlns="http://www.w3.org/2000/svg" viewBox="0 0 110 110"><path d="M47.82,60.63,50.6,63.4a5.77,5.77,0,0,0,4,1.74,4.4,4.4,0,0,0,3.15-1.26A4.34,4.34,0,0,0,59,61.28a5.81,5.81,0,0,0,3.24,1.41l.43,0A4.3,4.3,0,0,0,67,57.87a5.87,5.87,0,0,0-1.74-3.58l-1.06-1.06A4.31,4.31,0,0,0,66.85,52c1.83-1.83,1.59-5-.52-7.16L52.56,31.08l1.58.7c4.67,2,8.91,2.62,11.35,1.56a3.27,3.27,0,0,0,1.9-1.89c.6-1.68-.11-3.3-2.12-4.82a36.87,36.87,0,0,0-6-3.3l-1.71-.84c-1.36-.68-2.41-1.28-3.43-1.86C51,18.82,48.5,17.39,40.05,15.4a37.9,37.9,0,0,0-4.42-.67c-3.73-.4-7.24-.78-10.94-4.47a1,1,0,0,0-1.45,0,1,1,0,0,0,0,1.45c4.2,4.21,8.25,4.65,12.17,5.07a33.64,33.64,0,0,1,4.16.63c8.17,1.92,10.56,3.28,13.58,5,1,.59,2.12,1.21,3.53,1.91l1.73.85c3.61,1.75,7.7,3.73,7,5.58a1.3,1.3,0,0,1-.77.69c-1.43.61-4.82.57-9.71-1.56C51.79,28.5,50.2,27.81,48.35,27a1,1,0,0,0-1.15,1.67L64.87,46.31c1.32,1.31,1.55,3.22.52,4.25a2.42,2.42,0,0,1-2,.65,3.67,3.67,0,0,1-2.33-1.12h0L47.6,36.59a1,1,0,0,0-1.46,1.46l17.7,17.7A3.77,3.77,0,0,1,65,58.06,2.32,2.32,0,0,1,64.35,60a2.42,2.42,0,0,1-1.94.65,3.73,3.73,0,0,1-2.32-1.13L57.28,56.7h0l-.19-.18-.28-.28h0L42.38,41.81a1,1,0,1,0-1.45,1.45l14.89,14.9A3.77,3.77,0,0,1,57,60.48a2.4,2.4,0,0,1-.64,2c-1,1-3,.82-4.27-.49l-5.77-5.77h0L37.15,47a1,1,0,0,0-1.46,1.46l9.13,9.13a3.39,3.39,0,0,1,1,2,2.11,2.11,0,0,1-.56,1.69,2.08,2.08,0,0,1-1.69.56,3.32,3.32,0,0,1-2-1L29.59,49C22.92,42.33,21,38.09,19.14,34a32.3,32.3,0,0,0-7.25-10.92,1,1,0,0,0-1.45,0,1,1,0,0,0,0,1.45,30.11,30.11,0,0,1,6.82,10.33c1.85,4.07,3.94,8.68,10.87,15.61.07.06,11.94,11.94,11.94,11.94A5.41,5.41,0,0,0,43.41,64l.4,0a4,4,0,0,0,2.92-1.18A3.91,3.91,0,0,0,47.82,60.63Z"/><path d="M72,63.86a1,1,0,1,0,1.46-1.46L71.3,60.3a1,1,0,0,0-1.46,0,1,1,0,0,0,0,1.45Z"/><path d="M64.16,65a1,1,0,0,0,0,1.45l2.58,2.58a1,1,0,0,0,1.45,0,1,1,0,0,0,0-1.45L65.61,65A1,1,0,0,0,64.16,65Z"/><path d="M56.5,67.85a1,1,0,0,0,0,1.45l5,5A1,1,0,1,0,63,72.85l-5-5A1,1,0,0,0,56.5,67.85Z"/><path d="M76,90.86C71.91,89,67.67,87.08,61,80.41L47.46,66.86,46,68.32S59.49,81.8,59.55,81.87c6.93,6.93,11.54,9,15.61,10.87a30.11,30.11,0,0,1,10.33,6.82,1,1,0,1,0,1.45-1.45A32.3,32.3,0,0,0,76,90.86Z"/><path d="M99.74,85.31c-3.69-3.7-4.07-7.21-4.47-10.94A37.9,37.9,0,0,0,94.6,70c-2-8.45-3.42-11-5.23-14.12-.58-1-1.18-2.07-1.86-3.43l-.84-1.71a36.87,36.87,0,0,0-3.3-6c-1.52-2-3.14-2.72-4.82-2.12a3.27,3.27,0,0,0-1.89,1.9c-1.06,2.44-.47,6.68,1.56,11.35l.7,1.58-6.37-6.37a1,1,0,1,0-1.46,1.46L81.23,62.67c.21.45.42.93.66,1.45a2.61,2.61,0,0,1-.06,2.28c-1.17,2.36-2.68,7,.41,11.26a1,1,0,1,0,1.67-1.2c-2.46-3.42-1.2-7.2-.24-9.15a4.65,4.65,0,0,0,.09-4.05C82.5,60.52,81.9,59.14,80.11,55c-2.13-4.89-2.17-8.28-1.56-9.71a1.3,1.3,0,0,1,.69-.77c1.85-.66,3.83,3.43,5.58,7,.28.57.56,1.15.85,1.73.7,1.41,1.32,2.49,1.91,3.53,1.73,3,3.09,5.41,5,13.58a33.64,33.64,0,0,1,.63,4.16c.42,3.92.86,8,5.07,12.17a1,1,0,0,0,1.45,0A1,1,0,0,0,99.74,85.31Z"/></svg>