<svg id="Layer_1" data-name="Layer 1" xmlns="http://www.w3.org/2000/svg" viewBox="0 0 110 110"><path d="M99.08,101c0-.07-1.7-6.76-.88-12,.29-1.85,2.66-18.27-3-25.65C93,60.49,84.53,57.31,83.57,57a1.25,1.25,0,1,0-.87,2.35c3.36,1.24,9.17,3.83,10.47,5.52,4.11,5.32,3.54,17.42,2.56,23.74-.9,5.75.85,12.71.92,13a1.26,1.26,0,0,0,1.21.94,1.55,1.55,0,0,0,.31,0A1.26,1.26,0,0,0,99.08,101Z"/><path d="M81.27,64.83a12.08,12.08,0,0,1-3-2.64c-.85-1.13-1.51-2-2.06-2.76,12.18-18.73,14.91-44.19,15-45.27a1.26,1.26,0,0,0-1-1.37,131.74,131.74,0,0,0-22.87-1.24c-11.73.38-28.08,2.66-39.39,11.31-7.8,6-12.46,13.46-13.5,21.67a30.32,30.32,0,0,0,5.8,21.32L9.37,74.13a1.26,1.26,0,0,0,.77,2.25,1.23,1.23,0,0,0,.76-.26l10.82-8.28A30.24,30.24,0,0,0,40.79,79a27.33,27.33,0,0,0,3.84.27c7,0,14-2.6,20.59-7.64.48-.36,1-.75,1.42-1.14.42.81.76,1.47,1,1.88a2.12,2.12,0,0,1,.22,1.13,19.59,19.59,0,0,0,1.06,8.89C70.64,87,74.31,90.53,79.8,93a1.34,1.34,0,0,0,.51.11,1.26,1.26,0,0,0,.52-2.4c-11.49-5.19-10.76-14.09-10.52-17a4.65,4.65,0,0,0-.45-2.43c-.34-.7-1-2-1.85-3.59-2.13-4.1-5.7-10.94-6.37-13.27-.85-3-.27-3.83,1.18-4.5,2-.94,3-.16,5.55,3.19,2.12,2.8,3,4,4,5.35.87,1.2,1.86,2.55,3.87,5.24a14.41,14.41,0,0,0,3.61,3.19,15.28,15.28,0,0,1,4.7,4.59,1.25,1.25,0,1,0,2.11-1.35A17.72,17.72,0,0,0,81.27,64.83ZM70.37,51.6c-2.08-2.75-4.44-5.88-8.6-4-3.66,1.69-3.28,4.87-2.54,7.46S63,63.56,65.45,68.2c-.57.5-1.16,1-1.75,1.44-7.25,5.55-15.06,7.93-22.57,6.88a27.78,27.78,0,0,1-17.42-10.2l11.77-9L55.73,60h.17a1.27,1.27,0,0,0,1.24-1.09,1.25,1.25,0,0,0-1.08-1.41L38.29,55.15,55.65,41.87l9.1,1.21h.17a1.26,1.26,0,0,0,.16-2.5l-6.62-.88L73.93,27.87a1.26,1.26,0,0,0-1.53-2l-15.67,12,.93-7a1.26,1.26,0,1,0-2.49-.33L53.91,40,36.54,53.34,39,35.16a1.25,1.25,0,0,0-1.08-1.4,1.24,1.24,0,0,0-1.4,1.07L33.72,55.49,22.18,64.33a27.81,27.81,0,0,1-5.3-19.49c.95-7.52,5.28-14.44,12.54-20C40.19,16.61,56,14.43,67.31,14.06a133.75,133.75,0,0,1,21.25,1c-.69,5.2-4,26.29-14,42.19l-.21-.3C73.37,55.61,72.5,54.42,70.37,51.6Z"/><path d="M70.59,91.81c-3.17-3.46-6.17-6.74-6.17-13a1.25,1.25,0,0,0-2.5,0c0,7.18,3.62,11.15,6.82,14.65,2.26,2.46,4.39,4.79,5.05,8a1.26,1.26,0,0,0,1.23,1,1.06,1.06,0,0,0,.25,0,1.26,1.26,0,0,0,1-1.48C75.44,97.12,73,94.42,70.59,91.81Z"/></svg>