<svg id="Layer_1" data-name="Layer 1" xmlns="http://www.w3.org/2000/svg" viewBox="0 0 110 110"><path d="M35.11,75.22a1,1,0,1,0-1.46,1.5l.44.41a1,1,0,0,0,.7.27,1,1,0,0,0,.7-1.82Z"/><path d="M46.09,79.7l-.53,0a1,1,0,1,0-.18,2.08l.58.05H46a1,1,0,0,0,.06-2.09Z"/><path d="M52.06,79.52l-.55.06a1,1,0,0,0,.1,2.08h.1l.57-.06a1,1,0,1,0-.22-2.08Z"/><path d="M40.38,78.55l-.49-.2a1,1,0,0,0-.79,1.94l.55.21a1,1,0,0,0,.37.07,1,1,0,0,0,.36-2Z"/><path d="M93.74,67.93a1,1,0,0,0,.46.11,1,1,0,0,0,.47-2l-.53-.25a1,1,0,1,0-.88,1.89Z"/><path d="M88.18,66.08l.21,0a1,1,0,0,0,.2-2.07L88,63.92A1,1,0,0,0,87.65,66Z"/><path d="M81.72,65.54h.55a1,1,0,0,0,1-1,1.05,1.05,0,0,0-1-1h-.58a1,1,0,0,0,0,2.09Z"/><path d="M44.26,19.36a1,1,0,0,0,1,.74,1.1,1.1,0,0,0,.31,0,1,1,0,0,0,.69-1.3c0-.19-.11-.38-.17-.56a1,1,0,1,0-2,.65C44.16,19,44.21,19.19,44.26,19.36Z"/><path d="M46.28,29.66a1,1,0,0,0-1.13.95c0,.18,0,.36,0,.54A1,1,0,0,0,46,32.3h.11a1,1,0,0,0,1-.94c0-.19,0-.38,0-.57A1,1,0,0,0,46.28,29.66Z"/><path d="M45.22,24.63l0,.54a1.06,1.06,0,0,0,1,1h.06a1,1,0,0,0,1-1.1c0-.19,0-.38,0-.58a1,1,0,1,0-2.08.16Z"/><path d="M83.14,69.11a.75.75,0,0,0-.15,0c-.55,0-1.1-.06-1.67-.06H81.2A66,66,0,0,0,67.67,70.9l.09-.4C69,65,70.21,59.66,70.22,54.92h0c0-4.32-1-8.15-3.88-11.11h0c-6.14-6.26-16.16-3.8-26.79-1.13a67.37,67.37,0,0,0,2.25-13.79c0-.45,0-.87,0-1.31a.67.67,0,0,0,0-.2c-.12-5.56-1.79-9.91-5.11-13.23a1,1,0,0,0-1.47,0,1,1,0,0,0,0,1.48,14.17,14.17,0,0,1,1.44,1.69L11.31,42.62a15.11,15.11,0,0,1-1.69-1.45,1,1,0,0,0-1.48,0,1.06,1.06,0,0,0,0,1.48c3.32,3.32,7.68,5,13.23,5.1a.45.45,0,0,0,.11,0l.1,0c.43,0,.86,0,1.31,0a67.86,67.86,0,0,0,13.78-2.25C34,56.15,31.54,66.17,37.81,72.31h0c3,2.9,6.78,3.89,11.1,3.88h0c4.73,0,10.07-1.21,15.57-2.46l.4-.09a66.8,66.8,0,0,0-1.85,13.53c0,.62,0,1.21.06,1.8a.66.66,0,0,0,0,.14,20.34,20.34,0,0,0,3.28,10.46h0a18.37,18.37,0,0,0,2.15,2.62,1,1,0,0,0,.74.3,1.06,1.06,0,0,0,.74-.3,1,1,0,0,0,0-1.48A15.51,15.51,0,0,1,68.52,99L93,74.5A16.85,16.85,0,0,1,94.75,76a1,1,0,0,0,1.47,0,1,1,0,0,0,0-1.47C92.89,71.21,88.59,69.44,83.14,69.11ZM21.06,45.67a18.28,18.28,0,0,1-7.93-1.91L37.77,19.11a18.16,18.16,0,0,1,1.92,7.94Zm3-.05L39.64,30.05a77.17,77.17,0,0,1-2.4,13.18A76.05,76.05,0,0,1,24.07,45.62Zm14.68.21c.07-.29.14-.59.22-.88l.88-.22a94.71,94.71,0,0,1,12.7-2.6L36.14,58.53A95.14,95.14,0,0,1,38.75,45.83ZM36,61.65,55.67,42a12.82,12.82,0,0,1,8.4,2.61L38.59,70.05A12.76,12.76,0,0,1,36,61.65ZM48.51,74.1a13.49,13.49,0,0,1-8.43-2.58L65.53,46.07a13.52,13.52,0,0,1,2.59,8.42Zm15.54-2.39A96.06,96.06,0,0,1,51.58,74L68,57.56A96,96,0,0,1,65.72,70c-.1.45-.2.9-.31,1.36Zm3.11,1.44a70.11,70.11,0,0,1,13.41-2L65.16,86.55A71.5,71.5,0,0,1,67.16,73.15Zm.2,24a18.91,18.91,0,0,1-2.13-7.72L83.45,71.22a18.72,18.72,0,0,1,7.72,2.13Z"/><path d="M98.54,22.8l-6.29-3.63a1,1,0,0,0-1,0L84.92,22.8a1.05,1.05,0,0,0-.52.91v2.58H77.07V23.71a1.05,1.05,0,0,0-.52-.91l-6.29-3.63a1,1,0,0,0-1,0L62.93,22.8a1,1,0,0,0-.52.91V31a1,1,0,0,0,.52.9l6.29,3.64a1,1,0,0,0,1,0l2.39-1.39,3.45,5.66-2.33,1.34a1.05,1.05,0,0,0-.53.91v7.26a1.05,1.05,0,0,0,.53.91l6.28,3.63a1.13,1.13,0,0,0,.53.14,1.07,1.07,0,0,0,.52-.14l6.29-3.63a1.07,1.07,0,0,0,.52-.91V42a1.07,1.07,0,0,0-.52-.91l-2.26-1.3,3.6-5.74,2.48,1.43a1,1,0,0,0,1,0l6.29-3.64a1,1,0,0,0,.53-.9V23.71A1,1,0,0,0,98.54,22.8ZM69.74,33.39l-5.25-3V24.31l5.25-3,5.24,3v6.06Zm16.08,9.24v6.06l-5.24,3-5.25-3V42.63l5.25-3Zm-2.5-3.86L81.1,37.49a1.09,1.09,0,0,0-1,0l-2.14,1.24-3.45-5.65,2.09-1.21a1,1,0,0,0,.52-.9V28.38H84.4V31a1,1,0,0,0,.52.9l2,1.16ZM97,30.37l-5.25,3-5.24-3V24.31l5.24-3,5.25,3Z"/></svg>